<svg xmlns="http://www.w3.org/2000/svg" xmlns:xlink="http://www.w3.org/1999/xlink" viewBox="0 0 64 64"><defs><linearGradient id="linear-gradient" x1="54.81" y1="53.6" x2="30.1" y2="25.88" gradientUnits="userSpaceOnUse"><stop offset="0" stop-color="#039"/><stop offset="1" stop-color="#002185"/></linearGradient></defs><g id="Layer_1" data-name="Layer 1"><path d="M64,32A32,32,0,1,1,32,0,32,32,0,0,1,64,32Z" fill="#039"/><path d="M63.38,38.31A32.07,32.07,0,0,1,40.79,62.78L22.17,32.11l3.22-3.22,6,4.52L40,25l-.22-1.8Z" fill="url(#linear-gradient)"/><path d="M39.78,23.2l-9.8,10-4.59-4.35-3.22,3.22L30,39.69,43,26.42Z" fill="#fff"/></g><g id="Stars"><polygon points="32 7.11 32.8 9.57 35.38 9.57 33.29 11.09 34.09 13.54 32 12.03 29.91 13.54 30.7 11.09 28.62 9.57 31.21 9.53 32 7.11" fill="#fc0"/><polygon points="32 49.78 32.8 52.24 35.38 52.24 33.29 53.76 34.09 56.22 32 54.7 29.91 56.22 30.7 53.76 28.62 52.24 31.21 52.2 32 49.78" fill="#fc0"/><polygon points="42.67 9.97 43.47 12.43 46.05 12.43 43.96 13.94 44.76 16.4 42.67 14.88 40.58 16.4 41.37 13.95 39.28 12.43 41.87 12.43 42.67 9.97" fill="#fc0"/><polygon points="50.48 17.78 51.27 20.23 53.86 20.23 51.77 21.75 52.56 24.21 50.48 22.69 48.38 24.21 49.18 21.76 47.09 20.23 49.68 20.23 50.48 17.78" fill="#fc0"/><polygon points="21.33 9.97 20.53 12.43 17.95 12.43 20.04 13.94 19.24 16.4 21.33 14.88 23.42 16.4 22.63 13.95 24.71 12.43 22.13 12.43 21.33 9.97" fill="#fc0"/><polygon points="13.52 17.78 12.72 20.23 10.14 20.23 12.23 21.75 11.43 24.21 13.52 22.69 15.61 24.21 14.81 21.76 16.91 20.23 14.32 20.23 13.52 17.78" fill="#fc0"/><polygon points="42.66 46.92 43.46 49.38 46.05 49.38 43.96 50.89 44.76 53.35 42.66 51.83 40.58 53.35 41.37 50.91 39.28 49.38 41.87 49.38 42.66 46.92" fill="#fc0"/><polygon points="50.47 39.11 51.27 41.57 53.85 41.57 51.76 43.08 52.56 45.54 50.47 44.02 48.38 45.54 49.18 43.09 47.09 41.57 49.67 41.57 50.47 39.11" fill="#fc0"/><polygon points="21.33 46.92 20.53 49.38 17.95 49.38 20.04 50.89 19.24 53.35 21.33 51.83 23.42 53.35 22.62 50.91 24.71 49.38 22.13 49.38 21.33 46.92" fill="#fc0"/><polygon points="13.53 39.11 12.73 41.57 10.14 41.57 12.23 43.08 11.44 45.54 13.53 44.02 15.62 45.54 14.82 43.09 16.91 41.57 14.32 41.57 13.53 39.11" fill="#fc0"/><polygon points="53.33 28.43 54.13 30.89 56.71 30.89 54.62 32.41 55.42 34.87 53.33 33.35 51.24 34.87 52.04 32.42 49.95 30.89 52.53 30.89 53.33 28.43" fill="#fc0"/><polygon points="10.66 28.44 11.46 30.89 14.04 30.89 11.95 32.41 12.75 34.87 10.66 33.35 8.57 34.87 9.37 32.42 7.28 30.89 9.86 30.89 10.66 28.44" fill="#fc0"/></g></svg>